<svg width="11" height="16" viewBox="0 0 11 16" fill="none" xmlns="http://www.w3.org/2000/svg">
<path d="M10.9998 6.86477V11.2986C10.9998 11.2986 10.9998 12.8082 10.0812 13.6822C9.9771 13.7858 9.91938 13.9301 9.92217 14.0799V14.9397C9.92132 15.2487 9.68059 15.499 9.38335 15.5H5.07268C4.77543 15.499 4.53471 15.2487 4.53386 14.9397V14.8361C4.53434 14.3871 4.36044 13.9568 4.05155 13.643C3.53153 13.1164 2.7287 12.2061 2.37846 11.2986C1.83964 9.89809 0.762005 7.93744 0.223186 7.37728C-0.315633 6.81711 0.223186 6.25694 0.762005 6.25694C1.30082 6.25694 2.37846 7.37728 2.91728 8.21759C3.08876 8.48803 3.28947 8.73703 3.5154 8.95981C3.64953 9.08942 3.83787 9.1391 4.01517 9.09144C4.19247 9.04378 4.33412 8.90547 4.391 8.72455C4.49359 8.37922 4.54186 8.01876 4.53386 7.65742V1.21532C4.53216 0.859278 4.74888 0.54156 5.07268 0.425442C5.15866 0.391527 5.24998 0.374507 5.34202 0.375011C5.78843 0.375011 6.15031 0.751229 6.15031 1.21532V4.57645C6.14862 4.22027 6.36533 3.90268 6.68913 3.78656C6.77524 3.75265 6.86656 3.7355 6.9586 3.73613C7.40489 3.73613 7.76677 4.11235 7.76677 4.57645V5.41663C7.76677 5.19385 7.85215 4.98015 8.00386 4.82293C8.08827 4.73379 8.19159 4.66659 8.30559 4.62688C8.39169 4.59296 8.48301 4.57582 8.57506 4.57645C9.02147 4.57645 9.38335 4.95266 9.38335 5.41663V6.81711C9.38335 6.59433 9.4686 6.38063 9.62044 6.22341C9.70472 6.13427 9.80817 6.06707 9.92217 6.02723C10.0272 5.98714 10.1392 5.97087 10.2508 5.9797C10.6836 6.02773 11.0091 6.41227 10.9998 6.86477Z" fill="#F98AAB"/>
</svg>
